<svg xmlns="http://www.w3.org/2000/svg" viewBox="0 0 32 32"><path fill="#404a6b" d="M27,6H13.1554a3.0057,3.0057,0,0,0-2.2111-1H5A3.0033,3.0033,0,0,0,2,8V24a3.0033,3.0033,0,0,0,3,3H27a3.0033,3.0033,0,0,0,3-3V9A3.0033,3.0033,0,0,0,27,6ZM16.71,22.71a.99.99,0,0,1-1.09.21,1.1525,1.1525,0,0,1-.33-.21A.99.99,0,0,1,15,22a1,1,0,1,1,2,0A.9919.9919,0,0,1,16.71,22.71Zm.4355-4.4375a.3077.3077,0,0,0-.1455.28V19.5a1,1,0,0,1-2,0v-.9473a2.2768,2.2768,0,0,1,1.3813-2.1279,1,1,0,0,0-.1914-1.9072A1.0008,1.0008,0,0,0,15,15.5a1,1,0,0,1-2,0,3.0005,3.0005,0,1,1,4.1455,2.7725ZM15.9863,9a.9936.9936,0,0,1-.7934-.3906L14.7253,8H27a1.0009,1.0009,0,0,1,1,1Z" data-name="Help folder"/></svg>